<mxfile host="Electron" agent="Mozilla/5.0 (Windows NT 10.0; Win64; x64) AppleWebKit/537.36 (KHTML, like Gecko) draw.io/24.7.17 Chrome/128.0.6613.36 Electron/32.0.1 Safari/537.36" version="24.7.17">
  <diagram id="C5RBs43oDa-KdzZeNtuy" name="Page-1">
    <mxGraphModel dx="1036" dy="606" grid="1" gridSize="10" guides="1" tooltips="1" connect="1" arrows="1" fold="1" page="1" pageScale="1" pageWidth="827" pageHeight="1169" math="0" shadow="0">
      <root>
        <mxCell id="WIyWlLk6GJQsqaUBKTNV-0" />
        <mxCell id="WIyWlLk6GJQsqaUBKTNV-1" parent="WIyWlLk6GJQsqaUBKTNV-0" />
        <mxCell id="cSWCQMouT_8nUFlVAy4d-31" style="edgeStyle=orthogonalEdgeStyle;rounded=0;orthogonalLoop=1;jettySize=auto;html=1;entryX=0.5;entryY=0;entryDx=0;entryDy=0;" edge="1" parent="WIyWlLk6GJQsqaUBKTNV-1" source="cSWCQMouT_8nUFlVAy4d-0" target="cSWCQMouT_8nUFlVAy4d-1">
          <mxGeometry relative="1" as="geometry" />
        </mxCell>
        <mxCell id="cSWCQMouT_8nUFlVAy4d-0" value="Start" style="ellipse;whiteSpace=wrap;html=1;" vertex="1" parent="WIyWlLk6GJQsqaUBKTNV-1">
          <mxGeometry x="278.5" y="40" width="120" height="70" as="geometry" />
        </mxCell>
        <mxCell id="cSWCQMouT_8nUFlVAy4d-19" style="edgeStyle=orthogonalEdgeStyle;rounded=0;orthogonalLoop=1;jettySize=auto;html=1;entryX=0.5;entryY=0;entryDx=0;entryDy=0;" edge="1" parent="WIyWlLk6GJQsqaUBKTNV-1" source="cSWCQMouT_8nUFlVAy4d-1" target="cSWCQMouT_8nUFlVAy4d-12">
          <mxGeometry relative="1" as="geometry" />
        </mxCell>
        <mxCell id="cSWCQMouT_8nUFlVAy4d-1" value="Input : Nhập a" style="shape=parallelogram;perimeter=parallelogramPerimeter;whiteSpace=wrap;html=1;fixedSize=1;" vertex="1" parent="WIyWlLk6GJQsqaUBKTNV-1">
          <mxGeometry x="270" y="180" width="137.25" height="60" as="geometry" />
        </mxCell>
        <mxCell id="cSWCQMouT_8nUFlVAy4d-8" style="edgeStyle=orthogonalEdgeStyle;rounded=0;orthogonalLoop=1;jettySize=auto;html=1;entryX=0.5;entryY=0;entryDx=0;entryDy=0;" edge="1" parent="WIyWlLk6GJQsqaUBKTNV-1" source="cSWCQMouT_8nUFlVAy4d-3" target="cSWCQMouT_8nUFlVAy4d-4">
          <mxGeometry relative="1" as="geometry" />
        </mxCell>
        <mxCell id="cSWCQMouT_8nUFlVAy4d-3" value="Xuất : a là số chẵn" style="shape=parallelogram;perimeter=parallelogramPerimeter;whiteSpace=wrap;html=1;fixedSize=1;" vertex="1" parent="WIyWlLk6GJQsqaUBKTNV-1">
          <mxGeometry x="270" y="430" width="137" height="60" as="geometry" />
        </mxCell>
        <mxCell id="cSWCQMouT_8nUFlVAy4d-4" value="End" style="ellipse;whiteSpace=wrap;html=1;" vertex="1" parent="WIyWlLk6GJQsqaUBKTNV-1">
          <mxGeometry x="278.5" y="570" width="120" height="80" as="geometry" />
        </mxCell>
        <mxCell id="cSWCQMouT_8nUFlVAy4d-18" style="edgeStyle=orthogonalEdgeStyle;rounded=0;orthogonalLoop=1;jettySize=auto;html=1;entryX=0.5;entryY=0;entryDx=0;entryDy=0;" edge="1" parent="WIyWlLk6GJQsqaUBKTNV-1" source="cSWCQMouT_8nUFlVAy4d-12" target="cSWCQMouT_8nUFlVAy4d-3">
          <mxGeometry relative="1" as="geometry" />
        </mxCell>
        <mxCell id="cSWCQMouT_8nUFlVAy4d-20" value="" style="edgeStyle=orthogonalEdgeStyle;rounded=0;orthogonalLoop=1;jettySize=auto;html=1;" edge="1" parent="WIyWlLk6GJQsqaUBKTNV-1" source="cSWCQMouT_8nUFlVAy4d-12" target="cSWCQMouT_8nUFlVAy4d-3">
          <mxGeometry relative="1" as="geometry" />
        </mxCell>
        <mxCell id="cSWCQMouT_8nUFlVAy4d-27" style="edgeStyle=orthogonalEdgeStyle;rounded=0;orthogonalLoop=1;jettySize=auto;html=1;exitX=1;exitY=0.5;exitDx=0;exitDy=0;entryX=0.5;entryY=0;entryDx=0;entryDy=0;" edge="1" parent="WIyWlLk6GJQsqaUBKTNV-1" source="cSWCQMouT_8nUFlVAy4d-12" target="cSWCQMouT_8nUFlVAy4d-22">
          <mxGeometry relative="1" as="geometry" />
        </mxCell>
        <mxCell id="cSWCQMouT_8nUFlVAy4d-12" value="a %2 == 0" style="rhombus;whiteSpace=wrap;html=1;" vertex="1" parent="WIyWlLk6GJQsqaUBKTNV-1">
          <mxGeometry x="284.38" y="300" width="108.5" height="90" as="geometry" />
        </mxCell>
        <mxCell id="cSWCQMouT_8nUFlVAy4d-21" value="True" style="text;html=1;align=center;verticalAlign=middle;resizable=0;points=[];autosize=1;strokeColor=none;fillColor=none;" vertex="1" parent="WIyWlLk6GJQsqaUBKTNV-1">
          <mxGeometry x="348.5" y="390" width="50" height="30" as="geometry" />
        </mxCell>
        <mxCell id="cSWCQMouT_8nUFlVAy4d-25" style="edgeStyle=orthogonalEdgeStyle;rounded=0;orthogonalLoop=1;jettySize=auto;html=1;entryX=1;entryY=0.5;entryDx=0;entryDy=0;" edge="1" parent="WIyWlLk6GJQsqaUBKTNV-1" source="cSWCQMouT_8nUFlVAy4d-22" target="cSWCQMouT_8nUFlVAy4d-4">
          <mxGeometry relative="1" as="geometry">
            <Array as="points">
              <mxPoint x="540" y="610" />
            </Array>
          </mxGeometry>
        </mxCell>
        <mxCell id="cSWCQMouT_8nUFlVAy4d-22" value="Xuất : a là số lẻ" style="shape=parallelogram;perimeter=parallelogramPerimeter;whiteSpace=wrap;html=1;fixedSize=1;" vertex="1" parent="WIyWlLk6GJQsqaUBKTNV-1">
          <mxGeometry x="480" y="430" width="140" height="60" as="geometry" />
        </mxCell>
        <mxCell id="cSWCQMouT_8nUFlVAy4d-24" value="False" style="text;html=1;align=center;verticalAlign=middle;resizable=0;points=[];autosize=1;strokeColor=none;fillColor=none;" vertex="1" parent="WIyWlLk6GJQsqaUBKTNV-1">
          <mxGeometry x="450" y="320" width="50" height="30" as="geometry" />
        </mxCell>
      </root>
    </mxGraphModel>
  </diagram>
</mxfile>
